<svg width="28" height="28" viewBox="0 0 28 28" fill="none" xmlns="http://www.w3.org/2000/svg">
<path d="M14 2.625C17.0168 2.625 19.9101 3.82343 22.0433 5.95666C24.1766 8.08989 25.375 10.9832 25.375 14C25.375 17.0168 24.1766 19.9101 22.0433 22.0433C19.9101 24.1766 17.0168 25.375 14 25.375C10.9832 25.375 8.08989 24.1766 5.95666 22.0433C3.82343 19.9101 2.625 17.0168 2.625 14C2.625 10.9832 3.82343 8.08989 5.95666 5.95666C8.08989 3.82343 10.9832 2.625 14 2.625ZM14 28C17.713 28 21.274 26.525 23.8995 23.8995C26.525 21.274 28 17.713 28 14C28 10.287 26.525 6.72601 23.8995 4.10051C21.274 1.475 17.713 0 14 0C10.287 0 6.72601 1.475 4.10051 4.10051C1.475 6.72601 0 10.287 0 14C0 17.713 1.475 21.274 4.10051 23.8995C6.72601 26.525 10.287 28 14 28ZM10.9047 17.0953C9.19844 15.3891 9.19844 12.6164 10.9047 10.9102C12.6109 9.20391 15.3836 9.20391 17.0898 10.9102C17.6039 11.4242 18.4352 11.4242 18.9438 10.9102C19.4523 10.3961 19.4578 9.56484 18.9438 9.05625C16.2094 6.32188 11.7797 6.32188 9.04531 9.05625C6.31094 11.7906 6.31094 16.2203 9.04531 18.9547C11.7797 21.6891 16.2094 21.6891 18.9438 18.9547C19.4578 18.4406 19.4578 17.6094 18.9438 17.1008C18.4297 16.5922 17.5984 16.5867 17.0898 17.1008C15.3836 18.807 12.6109 18.807 10.9047 17.1008V17.0953Z" fill="#002379"/>
</svg>
