<svg width="52" height="44" viewBox="0 0 52 44" fill="none" xmlns="http://www.w3.org/2000/svg">
<path d="M1.76344 19.4114C0.331705 20.8432 0.331705 23.1683 1.76344 24.6L20.0896 42.9262C21.5213 44.3579 23.8465 44.3579 25.2782 42.9262C26.7099 41.4945 26.7099 39.1693 25.2782 37.7376L13.1944 25.6652L48.3348 25.6652C50.3622 25.6652 52.0001 24.0273 52.0001 22C52.0001 19.9727 50.3622 18.3348 48.3348 18.3348L13.2058 18.3348L25.2668 6.2624C26.6985 4.83067 26.6985 2.50553 25.2668 1.0738C23.835 -0.357936 21.5099 -0.357936 20.0782 1.0738L1.75198 19.4L1.76344 19.4114Z" fill="black"/>
</svg>
