<svg width="52" height="44" viewBox="0 0 52 44" fill="none" xmlns="http://www.w3.org/2000/svg">
<path d="M50.2367 24.5886C51.6684 23.1568 51.6684 20.8317 50.2367 19.4L31.9105 1.0738C30.4788 -0.357933 28.1536 -0.357933 26.7219 1.0738C25.2902 2.50553 25.2902 4.83066 26.7219 6.2624L38.8057 18.3348L3.6653 18.3348C1.63796 18.3348 6.10352e-05 19.9727 6.10352e-05 22C6.10352e-05 24.0273 1.63796 25.6652 3.6653 25.6652L38.7943 25.6652L26.7334 37.7376C25.3016 39.1693 25.3016 41.4945 26.7334 42.9262C28.1651 44.3579 30.4902 44.3579 31.922 42.9262L50.2481 24.6L50.2367 24.5886Z" fill="black"/>
</svg>
