<svg width="20" height="21" viewBox="0 0 20 21" fill="none" xmlns="http://www.w3.org/2000/svg">
<path d="M10.6344 0.919349L10.6351 0.920852L13.0704 6.13357L13.1835 6.37562L13.4476 6.41615L18.8889 7.25125C18.8891 7.25128 18.8893 7.25131 18.8895 7.25135C19.1469 7.29176 19.3734 7.48207 19.4629 7.76359C19.5517 8.04335 19.4773 8.35101 19.2818 8.55202L19.2816 8.55222L15.335 12.6144L15.1597 12.7949L15.2001 13.0433L16.1354 18.7826C16.1355 18.7828 16.1355 18.7831 16.1355 18.7833C16.1823 19.0769 16.0634 19.3682 15.8389 19.538C15.624 19.7006 15.341 19.7204 15.102 19.5897C15.1017 19.5895 15.1014 19.5893 15.101 19.5891L10.2438 16.8913L10.0011 16.7565L9.75829 16.8913L4.9011 19.5891C4.90077 19.5893 4.90044 19.5895 4.9001 19.5897C4.66394 19.7188 4.37912 19.6991 4.16056 19.536C3.9403 19.3717 3.8194 19.0788 3.86662 18.7831C3.86665 18.7829 3.86667 18.7828 3.86669 18.7826L4.79825 13.0429L4.83853 12.7948L4.66333 12.6144L0.716783 8.55222L0.716594 8.55202C0.523246 8.35322 0.448485 8.04495 0.536626 7.75996C0.621955 7.48406 0.848886 7.29211 1.1089 7.25133C1.10907 7.2513 1.10925 7.25128 1.10942 7.25125L6.54704 6.41614L6.81107 6.37559L6.92414 6.13357L9.35867 0.922596C9.35879 0.922335 9.35891 0.922075 9.35904 0.921814C9.48543 0.654709 9.73509 0.5 9.99728 0.5C10.2621 0.5 10.5128 0.656925 10.6344 0.919349Z" fill="#F4CE14" stroke="#45474B"/>
</svg>
